<mxfile host="app.diagrams.net" modified="2023-08-03T13:25:31.095Z" agent="Mozilla/5.0 (Windows NT 10.0; Win64; x64) AppleWebKit/537.36 (KHTML, like Gecko) Chrome/115.0.0.0 Safari/537.36" etag="HDAFwZR_h-BqWwTnp3K9" version="21.6.6" type="device">
  <diagram name="Page-1" id="VEE738--ORKi9scVD2ri">
    <mxGraphModel dx="466" dy="811" grid="1" gridSize="10" guides="1" tooltips="1" connect="1" arrows="1" fold="1" page="1" pageScale="1" pageWidth="850" pageHeight="1100" math="0" shadow="0">
      <root>
        <mxCell id="0" />
        <mxCell id="1" parent="0" />
        <mxCell id="TbBKbhGkLjlb8d_9chD9-1" value="&lt;p style=&quot;margin:13px;&quot;&gt;&lt;b&gt;&lt;i&gt;Raspberry Pi Model B 8 GB&lt;/i&gt;&lt;/b&gt;&lt;/p&gt;" style="shape=rect;html=1;overflow=fill;whiteSpace=wrap;align=center;" vertex="1" parent="1">
          <mxGeometry x="160" y="260" width="80" height="40" as="geometry" />
        </mxCell>
      </root>
    </mxGraphModel>
  </diagram>
</mxfile>
